<?xml version="1.0" encoding="utf-8"?>
<!-- Generator: Adobe Illustrator 16.0.0, SVG Export Plug-In . SVG Version: 6.00 Build 0)  -->
<!DOCTYPE svg PUBLIC "-//W3C//DTD SVG 1.1//EN" "http://www.w3.org/Graphics/SVG/1.1/DTD/svg11.dtd">
<svg version="1.1" xmlns="http://www.w3.org/2000/svg" xmlns:xlink="http://www.w3.org/1999/xlink" x="0px" y="0px" width="1400px"
	 height="980px" viewBox="0 0 1400 980" enable-background="new 0 0 1400 980" xml:space="preserve">
<g id="BACKGROUND">
	<g>
		<rect x="-7" y="-7" fill="#EC9953" width="1414" height="994"/>
	</g>
</g>
<g id="OBJECTS">
	<path fill="#AF4348" d="M388,823h858c0,0,64-468-310-456S790,141,597,120S258,279,264,823H388z"/>
	<g>
		<path fill="#C4656C" d="M514.07,288.023h-51.323c-5.707,0-10.333-4.626-10.333-10.333v-10.018c0-5.707,4.626-10.333,10.333-10.333
			h51.323c5.707,0,10.333,4.626,10.333,10.333v10.018C524.403,283.396,519.777,288.023,514.07,288.023z"/>
		<path fill="#C4656C" d="M591.961,288.023h-51.323c-5.707,0-10.333-4.626-10.333-10.333v-10.018
			c0-5.707,4.626-10.333,10.333-10.333h51.323c5.707,0,10.333,4.626,10.333,10.333v10.018
			C602.294,283.396,597.668,288.023,591.961,288.023z"/>
		<path fill="#C4656C" d="M553.016,322.248h-51.324c-5.707,0-10.333-4.626-10.333-10.333v-10.018
			c0-5.707,4.626-10.333,10.333-10.333h51.324c5.707,0,10.333,4.626,10.333,10.333v10.018
			C563.349,317.622,558.723,322.248,553.016,322.248z"/>
	</g>
	<g>
		<path fill="none" stroke="#583D50" stroke-miterlimit="10" d="M1061.476,319.351H858.79c-4.142,0-7.5-3.357-7.5-7.5v-11.985
			c0-4.143,3.358-7.5,7.5-7.5h202.686c4.143,0,7.5,3.357,7.5,7.5v11.985C1068.976,315.993,1065.618,319.351,1061.476,319.351z"/>
		<g>
			<g>
				<rect x="898.065" y="279.771" fill="#CC8148" width="8.996" height="136.728"/>
			</g>
			<g>
				<path fill="#CC8148" d="M915.154,457.878h-25.182c-2.485,0-4.5-2.015-4.5-4.5v-50.369c0-2.485,2.015-4.5,4.5-4.5h25.182
					c2.485,0,4.5,2.015,4.5,4.5v50.369C919.654,455.863,917.64,457.878,915.154,457.878z"/>
			</g>
			<path fill="#85544D" d="M906.159,328.346h-7.191c-2.485,0-4.5-2.015-4.5-4.5v-43.173c0-2.485,2.015-4.5,4.5-4.5h7.191
				c2.485,0,4.5,2.015,4.5,4.5v43.173C910.659,326.332,908.645,328.346,906.159,328.346z"/>
		</g>
		<g>
			<g>
				<rect x="959.233" y="279.771" fill="#CC8148" width="8.995" height="136.728"/>
			</g>
			<g>
				<path fill="#CC8148" d="M971.322,439.887h-15.182c-5.247,0-9.5-4.253-9.5-9.5v-22.378c0-5.247,4.253-9.5,9.5-9.5h15.182
					c5.247,0,9.5,4.253,9.5,9.5v22.378C980.822,435.634,976.569,439.887,971.322,439.887z"/>
			</g>
			<path fill="#85544D" d="M967.327,328.346h-7.191c-2.485,0-4.5-2.015-4.5-4.5v-43.173c0-2.485,2.015-4.5,4.5-4.5h7.191
				c2.485,0,4.5,2.015,4.5,4.5v43.173C971.827,326.332,969.812,328.346,967.327,328.346z"/>
		</g>
		<g>
			<g>
				<rect x="1020.401" y="279.771" fill="#CC8148" width="8.995" height="136.728"/>
			</g>
			<g>
				<path fill="#CC8148" d="M1030.356,457.878h-9.115c-8.962,0-15.822-7.978-14.479-16.839l4.557-30.079
					c1.085-7.159,7.239-12.451,14.48-12.451l0,0c7.241,0,13.395,5.292,14.479,12.451l4.558,30.079
					C1046.179,449.9,1039.318,457.878,1030.356,457.878z"/>
			</g>
			<path fill="#85544D" d="M1028.495,328.346h-7.191c-2.485,0-4.5-2.015-4.5-4.5v-43.173c0-2.485,2.015-4.5,4.5-4.5h7.191
				c2.485,0,4.5,2.015,4.5,4.5v43.173C1032.995,326.332,1030.98,328.346,1028.495,328.346z"/>
		</g>
		<circle fill="#FFD59D" cx="865.683" cy="304.958" r="7.196"/>
		<circle fill="#FFD59D" cx="930.449" cy="304.958" r="7.196"/>
		<circle fill="#FFD59D" cx="995.215" cy="304.958" r="7.196"/>
		<circle fill="#FFD59D" cx="1054.583" cy="304.958" r="7.196"/>
	</g>
	<g>
		<g>
			<path fill="#B2694F" d="M735.219,335.274h-18.673c-81.064,0-146.781,65.716-146.781,146.781v70.085H882v-70.085
				C882,400.99,816.284,335.274,735.219,335.274z"/>
		</g>
		<rect x="485.719" y="608.39" fill="#B16557" width="474.426" height="213.61"/>
		<rect x="509.309" y="619.012" fill="#DC6954" width="427.246" height="192.367"/>
		<polygon fill="#C95B4C" points="936.555,811.379 509.309,619.012 936.555,619.012 		"/>
		<line fill="none" stroke="#FFB35D" stroke-miterlimit="10" x1="837.998" y1="619.012" x2="837.998" y2="811.379"/>
		<line fill="none" stroke="#FFB35D" stroke-miterlimit="10" x1="725.293" y1="619.602" x2="725.293" y2="811.969"/>
		<line fill="none" stroke="#FFB35D" stroke-miterlimit="10" x1="612.587" y1="620.191" x2="612.587" y2="812.559"/>
		<circle fill="#79514F" cx="742.995" cy="714.605" r="8.261"/>
		<circle fill="#79514F" cx="708.77" cy="714.605" r="8.261"/>
		<path fill="#B06852" d="M924.74,568.265H521.124c-6.518,0-11.802-5.284-11.802-11.802l0,0c0-6.518,5.284-11.802,11.802-11.802
			H924.74c6.519,0,11.802,5.284,11.802,11.802l0,0C936.542,562.98,931.259,568.265,924.74,568.265z"/>
		<rect x="549.448" y="568.265" fill="#B06852" width="31.865" height="40.125"/>
		<rect x="866.912" y="568.265" fill="#B06852" width="31.865" height="40.125"/>
		<path fill="#C95B4C" d="M747.412,348.754h-43.06c-65.998,0-119.5,53.501-119.5,119.5v76.408h282.059v-76.408
			C866.912,402.255,813.41,348.754,747.412,348.754z"/>
		<line fill="none" stroke="#FFB35D" stroke-miterlimit="10" x1="725.293" y1="348.754" x2="725.293" y2="544.661"/>
		<circle fill="#5C404E" cx="747.716" cy="456.149" r="12.981"/>
		<circle fill="#5C404E" cx="702.87" cy="456.149" r="12.982"/>
	</g>
	<g>
		<g>
			<g>
				<path fill="#CC866D" d="M1023.376,162.719h-51.323c-5.707,0-10.334-4.626-10.334-10.333v-10.018
					c0-5.707,4.627-10.333,10.334-10.333h51.323c5.707,0,10.333,4.626,10.333,10.333v10.018
					C1033.709,158.093,1029.083,162.719,1023.376,162.719z"/>
			</g>
			<g>
				<path fill="#CC866D" d="M1101.267,162.719h-51.323c-5.707,0-10.334-4.626-10.334-10.333v-10.018
					c0-5.707,4.627-10.333,10.334-10.333h51.323c5.707,0,10.333,4.626,10.333,10.333v10.018
					C1111.6,158.093,1106.974,162.719,1101.267,162.719z"/>
			</g>
			<g>
				<path fill="#CC866D" d="M1062.321,196.944h-51.323c-5.707,0-10.334-4.626-10.334-10.333v-10.018
					c0-5.707,4.627-10.333,10.334-10.333h51.323c5.707,0,10.333,4.626,10.333,10.333v10.018
					C1072.654,192.317,1068.028,196.944,1062.321,196.944z"/>
			</g>
		</g>
	</g>
	<g opacity="0.75">
		<linearGradient id="SVGID_1_" gradientUnits="userSpaceOnUse" x1="330.0713" y1="256.6406" x2="271.0714" y2="399.6406">
			<stop  offset="0" style="stop-color:#FFFFFF;stop-opacity:0"/>
			<stop  offset="1" style="stop-color:#FFFFFF"/>
		</linearGradient>
		<path fill="url(#SVGID_1_)" d="M410.55,287.228c4.585-2.198,8.691-5.832,11.942-9.797c6.108-7.449,22.792-24.148,16.901-34.525
			c-6.44-11.346-28.243-1.996-34.966-13.177c-1.248-2.076-1.756-4.666-3.571-6.269c-1.52-1.343-3.653-1.709-5.674-1.877
			c-20.592-1.71-39.435,11.293-54.471,25.467c-4.834,4.557-9.63,9.398-15.682,12.14c-6.052,2.741-13.802,2.91-18.791-1.479
			c-2.646-2.327-4.221-5.632-6.608-8.224c-6.592-7.155-18.394-7.357-26.965-2.756c-8.572,4.602-14.478,12.924-19.276,21.387
			c-4.799,8.463-8.882,17.458-15.226,24.833c-9.628,11.192-23.544,17.632-35.038,26.898c-11.494,9.266-21.099,24.056-16.718,38.154
			c1.908,6.138,6.223,11.225,8.845,17.093c8.887,19.884-12.172,39.283,14.798,49.982c39.226,15.562,86.154,19.846,121.948-2.507
			c11.672-7.29,13.875-17.045,18.992-29.072c5.868-13.791,11.195-27.811,15.964-42.019c1.405-4.187,2.636-9.211-0.096-12.681
			c-1.929-2.451-5.243-3.264-8.322-3.763c-4.947-0.802-9.961-1.194-14.974-1.168c-11.192,0.056-17.989-6.863-17.265-18.318
			c0.488-7.708,4.674-14.746,9.798-20.525c8.435-9.515,45.551-35.002,54.354-13.666c0.489,1.185,0.789,2.454,1.419,3.57
			c1.508,2.67,4.665,4.01,7.712,4.355C403.402,289.717,407.111,288.876,410.55,287.228z M257.256,315.725
			c7.958-6.806,16.163-15.823,14.742-26.198c-0.372-2.718-1.408-5.494-0.637-8.127c1.868-6.38,13.871-16.034,21.189-12.914
			c11.597,4.944-2.036,10.925-6.294,15.672c-1.433,1.598-2.14,4.119-0.943,5.901c4.451-0.941,9.081-1.028,13.565-0.256
			c-0.097,5.473-4.292,10.06-8.938,12.954c-4.646,2.895-9.942,4.666-14.449,7.771c-6.287,4.332-10.573,10.913-15.182,17
			c-1.613,2.131-3.354,4.279-5.717,5.527c-2.364,1.249-5.518,1.379-7.532-0.378C246.016,325.847,252.006,320.214,257.256,315.725z
			 M304.691,350.763c-16.906,16.295-43.267,21.977-65.384,14.091c-3.766-1.342-7.544-3.067-11.541-2.96
			c-3.349,0.089-6.522,1.465-9.828,2.005c-3.306,0.54-7.215-0.039-9.063-2.833c-2.517-3.808,0.489-9.083,4.437-11.375
			c6.052-3.513,13.638-2.907,20.43-1.226c6.793,1.681,13.437,4.337,20.429,4.615c8.864,0.353,17.487-3.187,24.946-7.989
			c6.001-3.865,15.922-19.333,21.984-20.09c13.949-1.744-4.919,16.446-7.74,18.833c5.106-1.392,10.346-2.292,15.625-2.681
			C309.965,344.711,307.348,348.201,304.691,350.763z M328.808,345.769c1.823-2.501,5.357-4.049,8.107-2.627l-2.837,2.874
			c2.451-1.24,5.05-2.511,7.792-2.35c2.742,0.162,5.567,2.349,5.376,5.089c-0.115,1.649-1.247,3.044-2.465,4.162
			c-4.357,3.999-10.559,5.901-16.409,5.032c-0.817-0.121-1.709-0.345-2.178-1.026c-0.47-0.682-0.359-1.593-0.229-2.411
			C326.45,351.455,326.985,348.27,328.808,345.769z M381.724,231.389c1.428-1.047,3.29-1.235,5.054-1.389l-3.773-0.016
			c3.737-0.043,7.474-0.086,11.211-0.13c0.606-0.007,1.24-0.008,1.78,0.269c1.776,0.91,1.009,3.71-0.453,5.067
			c-3.275,3.041-8.364,3.31-12.645,2.025c-0.807-0.242-1.638-0.559-2.181-1.203C379.576,234.66,380.296,232.436,381.724,231.389z
			 M391.136,263.211c-6.295-1.835-11.644-6.585-18.159-7.323c-5.688-0.644-11.224,1.901-16.213,4.708
			c-4.813,2.709-9.454,5.726-13.884,9.025c-3.612,2.69-7.563,5.725-12.053,5.379c4.355-12.459,23.118-14.429,28.27-26.58
			c0.644-1.518,1.044-3.148,1.899-4.558c2.695-4.436,8.38-5.731,12.656-5.205c0.355,0.044,13.696,5.648,14.182,6.301
			c0.459,0.616,0.711,1.357,1.073,2.034c1.859,3.471,6.274,4.645,10.254,4.287c6.288-2.617,13.024-4.157,19.828-4.478l1.018-0.897
			c1.84-0.023,3.608,1.332,4.064,3.115c-0.322,0.177-0.645,0.354-0.967,0.531c1.19,0.705,2.14,1.747,1.948,3.047
			c-0.079,0.534-0.341,0.984-0.697,1.378c1.929-0.014,3.859,0.015,5.785,0.134c-1.923,9.726-12.688,16.734-22.36,14.557
			c-0.024-2.029-0.152-4.25-0.792-6.156C401.749,264.151,396.393,264.744,391.136,263.211z"/>
	</g>
	<g>
		<path fill="#EAE7E4" d="M415.28,526.372l47.458-108.582l-29.16-12.745c-8.692-3.799-18.819,0.167-22.618,8.86l-40.58,92.843
			c-5.419,12.398,0.239,26.842,12.637,32.261l0,0C395.417,544.428,409.86,538.771,415.28,526.372z"/>
		<path fill="#EAE7E4" d="M272.927,554.592l118.036-10.473c13.478-1.195,23.435-13.091,22.239-26.569l0,0
			c-1.196-13.478-13.092-23.435-26.569-22.238l-118.037,10.473L272.927,554.592z"/>
		<path fill="#5B414A" d="M565.676,382.805c9.036,1.94,18.264,3.224,26.959,6.354c6.582,2.37,12.749,5.762,18.711,9.421
			c15.005,9.21,29.081,20.39,39.412,34.646s16.7,31.849,15.345,49.403c-1.456,18.879-16.79,32.891-33.783,39.124
			c-12.798,4.694-26.62,5.731-40.244,6.194c-11.259,0.383-22.613,0.397-33.685-1.68c-9.778-1.834-19.183-5.272-28.381-9.063
			c-25.538-10.527-51.14-25.084-64.881-49.046c-8.463-14.757-11.569-31.806-12.192-48.627c-0.31-8.367,0.972-16.854,0.522-25.164
			c-0.447-8.247-1.813-15.477,0.195-23.783c1.689-6.987,5.098-13.778,10.724-18.253c12.192-9.699,37.128-13.234,49.581-2.363
			c6.875,6.001,11.477,14.031,18.882,19.55C542.419,376.654,554.132,380.326,565.676,382.805z"/>
		<g>
			<path fill="#86554E" d="M394.433,691.246L394.433,691.246c-17.621-8.598-24.935-29.852-16.337-47.472l60.734-124.474
				l63.809,31.135l-60.734,124.474C433.308,692.529,412.054,699.844,394.433,691.246z"/>
		</g>
		<g>
			<path fill="#86554E" d="M377.448,866.906l-67.384-22.37l63.097-188.912c6.178-18.607,26.27-28.684,44.877-22.507l0,0
				c18.607,6.178,28.684,26.271,22.506,44.878L377.448,866.906z"/>
		</g>
		<path fill="#6A8459" d="M561.227,510.313c2.174,0.365,4.275,1.125,6.465,1.372c2.48,0.28,4.995-0.109,7.404-0.761
			c5.302-1.435,10.327-4.228,13.867-8.427c1.457,4.908,0.258,10.36-2.47,14.692c-2.729,4.331-6.856,7.636-11.32,10.143
			c-7.688,4.318-16.748,6.099-25.358,3.776c-8.885-2.396-8.996-11.111-2.518-16.938C551.012,510.83,556.338,509.49,561.227,510.313z
			"/>
		<path fill="#6A8459" d="M559.18,525.071c2.663,1.367,4.77,3.592,7.201,5.338c5.584,4.009,13.005,5.341,19.635,3.524
			c-1.94,5.235-6.547,9.217-11.764,11.205c-5.217,1.987-10.989,2.144-16.513,1.335c-6.674-0.978-17.944-5.592-16.582-14.274
			C542.33,524.727,553.326,522.067,559.18,525.071z"/>
		<g>
			<path fill="#A193A2" d="M551.104,534.859c-0.05,0.251-0.118,0.492-0.203,0.725c-18.56-3.479-40.374-0.765-59.374-0.858
				c-20.838-0.104-41.679-0.114-62.519,0.31c0.603-17.272,0.531-34.601,0.728-51.889c0.038-3.347,0.044-6.841-1.453-9.834
				c-1.586-3.173-4.634-5.331-6.806-8.137c-6.326-8.174-4.147-19.984-0.333-29.591c4.408-11.101,8.452-20.48,7.864-32.619
				c1.069,0.021,2.646,0.339,3.679,0.035c7.863-2.316,73.24,0.146,103.747,0.505c34.557,0.408,2.703,62.583,0.445,77.488
				c-1.468,9.695-0.363,19.769,3.173,28.915C542.407,516.001,552.407,528.389,551.104,534.859z"/>
		</g>
		<polygon fill="#5C404E" points="309.19,844.398 259.165,861.677 370.786,889.851 379.533,858.283 		"/>
		<g>
			<path fill="#86554E" d="M578.006,694.994L578.006,694.994c-18.003,7.766-38.892-0.533-46.657-18.536l-64.439-149.271
				l74.777-6.023l54.856,127.174C604.308,666.34,596.008,687.229,578.006,694.994z"/>
		</g>
		<g>
			<path fill="#86554E" d="M715.433,811.157l-57.3,41.925L540.814,692.131c-11.578-15.822-8.136-38.035,7.687-49.612l0,0
				c15.823-11.577,38.035-8.136,49.613,7.688L715.433,811.157z"/>
		</g>
		<polygon fill="#5C404E" points="657.514,853.715 642.582,904.489 730.262,829.889 709.617,804.458 		"/>
		<path fill="#FFFBF5" d="M536.434,403.505c-3.637-0.043-7.773-0.116-12.244-0.207c-4.443,17.218-17.097,75.282,12.201,82.195
			c0.104-1.506,0.262-3.008,0.488-4.501C539.137,466.089,570.991,403.913,536.434,403.505z"/>
		<g>
			<path fill="#A193A2" d="M429.52,518.5c0,0-19.02,61-50.02,113c0,0,91,67,163,9l-12-113C530.5,527.5,464.539,546.5,429.52,518.5z"
				/>
		</g>
		<path fill="#A3C063" d="M241.801,482.629c-1.195-0.938-2.785-1.913-4.121-1.19c-1.165,0.629-1.393,2.184-1.387,3.508
			c0.014,3.31,0.635,6.616,1.821,9.706c0.494,1.286,1.08,2.759,0.428,3.973c-0.563,1.048-1.834,1.458-2.989,1.75
			c-5.383,1.359-10.903,2.172-16.449,2.423c-6.41,0.289-13.447,0.021-18.463,4.023c-7.309,5.83-6.136,17.616-1.29,25.611
			c6.659,10.986,18.496,18.152,30.953,21.289c7.346,1.85,14.391,1.695,21.819,2.074c7.928,0.405,15.605,2.035,23.63,1.908
			c2.419-0.039,4.923-0.171,7.081-1.266c3.965-2.01,5.735-6.67,6.742-11c3.196-13.745,2.655-30.109-4.363-42.652
			c-0.278-0.496-0.589-1.005-1.077-1.295c-1.023-0.609-2.302-0.04-3.439,0.313c-2.578,0.802-5.513,0.358-7.739-1.169
			c-1.507-1.035-2.7-2.529-4.348-3.32c-4.333-2.079-8.773-0.409-13.024-3.35C250.717,490.599,246.457,486.284,241.801,482.629z"/>
		<path fill="#7E9F6A" d="M426.305,528.146l124.484,9.969c0,0,9.348-9.433-5.971-19.523c0,0-71.389-12.117-115.354-4.104
			C429.465,514.487,421.109,520.792,426.305,528.146z"/>
		<path fill="#FFFBF5" d="M520.351,527.031l40.077-80.306c9.686-19.407-4.429-42.225-26.119-42.225H529.5l-52.747,100.164
			c-6.177,12.039-1.424,26.806,10.615,32.982l0,0C499.407,543.823,514.174,539.07,520.351,527.031z"/>
		<path fill="#FFFBF5" d="M384.798,566.183l115.688-25.661c13.21-2.93,21.543-16.014,18.613-29.224l0,0
			c-2.93-13.21-16.014-21.543-29.224-18.613l-115.688,25.661L384.798,566.183z"/>
		<rect x="465.5" y="369.5" fill="#EAC686" width="45" height="38"/>
		<g>
			<path fill="#938795" d="M323.678,419.744l-13.856-8l31.5-54.56c2.209-3.826,7.102-5.137,10.928-2.928l0,0
				c3.826,2.209,5.137,7.102,2.928,10.928L323.678,419.744z"/>
			<path fill="#5C404E" d="M367.5,540.5h-192c-4.971,0-9-4.029-9-9l0,0c0-4.971,4.029-9,9-9h192c4.971,0,9,4.029,9,9l0,0
				C376.5,536.471,372.471,540.5,367.5,540.5z"/>
			<path fill="#FDCB6A" d="M215.899,401.622c1.482-2.253,2.732-4.72,4.729-6.534c3.146-2.855,7.601-3.633,11.798-4.292
				c4.669-0.732,9.338-1.465,14.008-2.198c1.816-0.285,3.665-0.579,5.315-1.39c1.392-0.684,2.582-1.705,3.795-2.67
				c11.167-8.879,28.41-13.089,39.259-3.824c1.903,1.625,3.497,3.576,5.262,5.351c6.348,6.386,14.681,10.316,22.262,15.177
				c9.892,6.342,18.63,14.379,26.351,23.237c-34.55,12.801-71.823,18.196-108.584,15.716c-12.231-0.825-35.378-1.53-43.899-12.068
				C186.93,416.671,210.394,409.991,215.899,401.622z"/>
			<path fill="#E06A5C" d="M295.663,522.5h-49.325c-16.027,0-30.256-10.256-35.324-25.46l-23.358-70.074
				c-1.061-3.181,1.307-6.466,4.66-6.466h157.369c3.353,0,5.721,3.285,4.66,6.466l-23.358,70.074
				C325.918,512.244,311.689,522.5,295.663,522.5z"/>
			<circle fill="#FBAF57" cx="274.5" cy="386.5" r="3"/>
			<circle fill="#FBAF57" cx="254" cy="398" r="4.5"/>
			<circle fill="#FBAF57" cx="235.5" cy="405.5" r="3"/>
			<circle fill="#FBAF57" cx="297" cy="404" r="6.5"/>
			<circle fill="#FBAF57" cx="279.5" cy="410.5" r="2"/>
			<circle fill="#FBAF57" cx="221.5" cy="410.5" r="2"/>
			<circle fill="#FBAF57" cx="316.5" cy="409.5" r="4"/>
		</g>
		<path fill="#A3C063" d="M344.621,498.853c-1.306-0.775-3.009-1.536-4.24-0.647c-1.073,0.775-1.099,2.347-0.921,3.658
			c0.442,3.28,1.485,6.479,3.062,9.389c0.656,1.212,1.428,2.596,0.938,3.884c-0.423,1.112-1.631,1.684-2.738,2.122
			c-5.162,2.045-10.53,3.565-15.997,4.531c-6.319,1.116-13.331,1.762-17.787,6.379c-6.493,6.728-3.804,18.262,2.036,25.563
			c8.024,10.032,20.689,15.605,33.448,17.104c7.413,0.87,13.983-0.443,21.161-0.993c8.124-0.622,16.129-0.147,24.266-1.381
			c2.228-0.338,4.518-0.762,6.395-2.008c3.624-2.406,4.757-7.151,5.304-11.467c1.52-11.984,0.766-24.254-2.209-35.963
			c-0.911-3.585-2.171-7.336-5.051-9.656c-7.897,2.412-17.633,5.438-25.774,2.346C359.117,508.903,351.538,502.959,344.621,498.853z
			"/>
		<path fill="#FDDA96" d="M520.5,347.5c0,17.159-11.293,23.977-23.421,33.073c-8.448,6.336-29.098,9.932-38.63,4.113
			c-3.862-2.357-5.554-7.038-6.633-11.433c-6.244-25.427,1.147-60.754,33.685-60.753C504.83,312.5,520.5,328.17,520.5,347.5z"/>
		<path fill="#5B414A" d="M483.957,355.614c3.565,8.11,6.774,16.519,11.818,23.863c3.293,4.795,15.315,19.934,18.684,8.723
			c2.797-9.311,5.432-18.758,6.082-28.458c1.581-23.623-14.467-51.962-41.659-48.375c-3.294,0.435-9.084,1.68-10.138,5.433
			c-0.813,2.896,1.96,7.757,2.85,10.416c2.99,8.937,7.413,17.019,11.143,25.602C483.141,353.751,483.547,354.683,483.957,355.614z"
			/>
		<path fill="#FFFBF5" d="M454.9,331.619c0,0,38.418-10.996,65.509,18.442L537.5,305.5c0,0,39,8,39-18s-26-29-32-27c0,0-9-49-56-16
			c0,0-34-30-45,3s23,32,23,32L454.9,331.619z"/>
		<path fill="#EFECE8" d="M460.939,304.484l-6.04,27.135c0,0,38.418-10.996,65.509,18.442l9.065-23.636
			C508.222,300.422,477.448,301.867,460.939,304.484z"/>
		<circle fill="#FFB35D" cx="503" cy="321" r="8.5"/>
		<path fill="none" stroke="#000000" stroke-miterlimit="10" d="M458.024,373.287c5.995,3.076,13.983,1.586,18.467-3.443"/>
		<path fill="none" stroke="#000000" stroke-miterlimit="10" d="M460.028,349.007c-0.75,2.651-1.501,5.302-2.252,7.953
			c-0.252,0.889-0.506,1.815-0.347,2.725c0.432,2.464,3.603,3.44,6.045,2.898c0.861-0.191,1.832-0.486,2.569-0.001"/>
		<path fill="none" stroke="#000000" stroke-miterlimit="10" d="M473.052,345.383c3.073-3.208,8.724-3.442,12.053-0.501"/>
		<path fill="none" stroke="#000000" stroke-miterlimit="10" d="M457.507,345.552c-0.805-0.887-1.657-1.806-2.785-2.21
			c-1.127-0.404-2.608-0.094-3.125,0.987"/>
		<path fill="#FFFBF5" d="M513.756,403.071c-22.473-0.513-49.654-1.228-66.345-1.013c-0.347,7.926,4.039,19.5,31.7,21.442
			C505.849,425.377,512.514,412.772,513.756,403.071z"/>
		<path fill="#FFFBF5" d="M462,394l19,3l4,8l-22-1C463,404,458,398,462,394z"/>
		<path fill="#FFFBF5" d="M485,405l3-8h26c0,0,2,5-3,7L485,405z"/>
	</g>
	<g>
		<path fill="none" stroke="#FFFBF5" stroke-miterlimit="10" d="M903.861,543.272h-41.755c-10.355,0-18.75-8.395-18.75-18.75
			v-64.871c0-10.355,8.395-18.75,18.75-18.75h41.755c10.355,0,18.75,8.395,18.75,18.75v64.871
			C922.611,534.878,914.217,543.272,903.861,543.272z"/>
		<path fill="#FFB35D" d="M907.643,479.557c-10.154,2.971-16.74,14.785-27.309,15.282c-8.393,0.395-15.26-6.647-23.436-8.581
			c-3.007-0.711-6.151-0.623-9.139,0.122v32.565c0,11.399,9.24,20.64,20.64,20.64h29.17c11.399,0,20.64-9.24,20.64-20.64v-39.063
			C914.819,478.718,911.084,478.55,907.643,479.557z"/>
		<rect x="858.768" y="434.296" fill="#5C404E" width="46.231" height="7.706"/>
		<line fill="none" stroke="#3F2C37" stroke-miterlimit="10" x1="863.171" y1="434.847" x2="863.171" y2="441"/>
		<line fill="none" stroke="#3F2C37" stroke-miterlimit="10" x1="868.674" y1="434.847" x2="868.674" y2="441"/>
		<line fill="none" stroke="#3F2C37" stroke-miterlimit="10" x1="874.178" y1="434.847" x2="874.178" y2="441"/>
		<line fill="none" stroke="#3F2C37" stroke-miterlimit="10" x1="879.682" y1="434.847" x2="879.682" y2="441"/>
		<line fill="none" stroke="#3F2C37" stroke-miterlimit="10" x1="885.186" y1="434.847" x2="885.186" y2="441"/>
		<line fill="none" stroke="#3F2C37" stroke-miterlimit="10" x1="890.689" y1="434.847" x2="890.689" y2="441"/>
		<line fill="none" stroke="#3F2C37" stroke-miterlimit="10" x1="896.193" y1="434.847" x2="896.193" y2="441"/>
		<line fill="none" stroke="#3F2C37" stroke-miterlimit="10" x1="901.697" y1="434.847" x2="901.697" y2="441"/>
	</g>
	<g>
		<g>
			<g>
				<path fill="#CC866D" d="M808.138,226.719h-51.323c-5.707,0-10.333-4.626-10.333-10.333v-10.018
					c0-5.707,4.626-10.333,10.333-10.333h51.323c5.707,0,10.333,4.626,10.333,10.333v10.018
					C818.471,222.093,813.845,226.719,808.138,226.719z"/>
			</g>
			<g>
				<path fill="#CC866D" d="M886.028,226.719h-51.323c-5.707,0-10.333-4.626-10.333-10.333v-10.018
					c0-5.707,4.626-10.333,10.333-10.333h51.323c5.707,0,10.334,4.626,10.334,10.333v10.018
					C896.362,222.093,891.735,226.719,886.028,226.719z"/>
			</g>
			<g>
				<path fill="#CC866D" d="M847.083,260.944H795.76c-5.707,0-10.333-4.626-10.333-10.333v-10.018
					c0-5.707,4.626-10.333,10.333-10.333h51.323c5.707,0,10.333,4.626,10.333,10.333v10.018
					C857.416,256.317,852.79,260.944,847.083,260.944z"/>
			</g>
		</g>
	</g>
	<g>
		<path fill="#C4656C" d="M1061.928,529.319h-51.323c-5.707,0-10.333-4.627-10.333-10.334v-10.018
			c0-5.707,4.626-10.333,10.333-10.333h51.323c5.707,0,10.334,4.626,10.334,10.333v10.018
			C1072.262,524.692,1067.635,529.319,1061.928,529.319z"/>
		<path fill="#C4656C" d="M1139.818,529.319h-51.323c-5.707,0-10.333-4.627-10.333-10.334v-10.018
			c0-5.707,4.626-10.333,10.333-10.333h51.323c5.707,0,10.334,4.626,10.334,10.333v10.018
			C1150.152,524.692,1145.525,529.319,1139.818,529.319z"/>
		<path fill="#C4656C" d="M1100.873,563.544h-51.323c-5.707,0-10.333-4.627-10.333-10.333v-10.019
			c0-5.706,4.626-10.333,10.333-10.333h51.323c5.707,0,10.334,4.627,10.334,10.333v10.019
			C1111.207,558.917,1106.58,563.544,1100.873,563.544z"/>
	</g>
	<g>
		<path fill="#A3C063" d="M992.01,562.363c0,0-18.883,103.854,48.387,171.124C1040.396,733.487,1053.379,640.255,992.01,562.363z"/>
		<path fill="#A3C063" d="M1061.64,521.058c0,0-49.567,113.296-21.243,212.43C1040.396,733.487,1107.666,636.714,1061.64,521.058z"
			/>
		<path fill="#A3C063" d="M1110.026,588.327c0,0-61.368,60.188-69.63,145.16C1040.396,733.487,1128.909,659.137,1110.026,588.327z"
			/>
		<path fill="none" stroke="#FFFBF5" stroke-miterlimit="10" d="M1040.396,733.487c-15.342-23.603-44.846-149.881-43.666-152.241"/>
		<path fill="none" stroke="#FFFBF5" stroke-miterlimit="10" d="M1060.459,538.761c0,0-2.346,120.377-19.465,189.417"/>
		<path fill="none" stroke="#FFFBF5" stroke-miterlimit="10" d="M1105.306,602.489c0,0-28.907,73.17-54.579,120.377"/>
		<polygon fill="#C1494B" points="1092.324,818.459 1010.893,818.459 981.389,707.524 1121.828,707.524 		"/>
		<polygon fill="#A33D44" points="1092.324,818.459 981.389,707.524 1121.828,707.524 		"/>
	</g>
</g>
</svg>
